<?xml version="1.0" encoding="UTF-8"?>
<svg xmlns="http://www.w3.org/2000/svg" id="status_icon" data-name="status_icon" version="1.1" viewBox="0 0 92 92">
  <!-- Generator: Adobe Illustrator 29.1.0, SVG Export Plug-In . SVG Version: 2.1.0 Build 142)  -->
  <defs>
    <style>
      .path {
        fill: url(#_gradient_gray);
      }
    </style>
    <linearGradient id="_gradient_gray" data-name="gradient" x1="0" y1="0" x2="92.0" y2="92.0"
      gradientUnits="userSpaceOnUse">
      <stop offset="0" stop-color="#95a5a6" />
      <stop offset="1" stop-color="#7f8c8d" />
    </linearGradient>
  </defs>
  <path class="st0"
    d="M31.5,47.5c0-.5.1-1,.1-1.5s0-1-.1-1.5l3.2-2.5c.3-.2.4-.6.2-1l-3-5.2c-.2-.3-.6-.5-.9-.3l-3.8,1.5c-.8-.6-1.6-1.1-2.6-1.5l-.6-4c0-.4-.4-.6-.8-.6h-6c-.4,0-.7.3-.7.6l-.6,4c-.9.4-1.8.9-2.6,1.5l-3.8-1.5c-.3-.1-.7,0-.9.3l-3,5.2c-.2.3-.1.7.2,1l3.2,2.5c0,.5-.1,1-.1,1.5s0,1,.1,1.5l-3.2,2.5c-.3.2-.4.6-.2,1l3,5.2c.2.3.6.5.9.3l3.8-1.5c.8.6,1.6,1.1,2.6,1.5l.6,4c0,.4.4.6.7.6h6c.4,0,.7-.3.7-.6l.6-4c.9-.4,1.8-.9,2.6-1.5l3.8,1.5c.3.1.7,0,.9-.3l3-5.2c.2-.3.1-.7-.2-1l-3.2-2.5h0ZM20.3,51.3c-2.9,0-5.3-2.4-5.3-5.3s2.4-5.3,5.3-5.3,5.3,2.4,5.3,5.3-2.4,5.3-5.3,5.3Z"
    fill="url(#_gradient_gray)" />
  <path class="st1"
    d="M90.2,42.1L51.7,3.6c-2.2-2.2-5.8-2.2-8,0h0s-8,8-8,8l10.1,10.1c2.4-.8,5.1-.2,6.9,1.6,1.8,1.8,2.5,4.5,1.6,7l9.8,9.8c2.4-.8,5.2-.2,7,1.6,2.6,2.6,2.6,6.9,0,9.6h0c-2.6,2.6-6.9,2.6-9.6,0-1.9-1.9-2.5-4.8-1.5-7.4l-9.1-9.1v24c3.3,1.7,4.7,5.7,3.1,9.1-.3.7-.8,1.3-1.3,1.8-2.6,2.6-6.9,2.6-9.6,0h0c-2.6-2.6-2.6-6.9,0-9.6,0,0,0,0,0,0,.6-.6,1.4-1.1,2.2-1.5v-24.2c-3.5-1.4-5.1-5.4-3.7-8.8,0,0,0,0,0,0l-10-10-10.3,10.3c10.7.6,19.1,9.4,19.1,20.2s-8.4,19.5-19,20.2l22.3,22.3c2.2,2.2,5.8,2.2,8,0l38.4-38.4c2.2-2.2,2.2-5.8,0-8Z"
    fill="url(#_gradient_gray)" />
</svg>